<?xml version="1.0" encoding="utf-8" ?>
<svg baseProfile="full" height="1000.0" version="1.1" viewBox="-500.0,-500.0,1000.0,1000.0" width="1000.0" xmlns="http://www.w3.org/2000/svg" xmlns:ev="http://www.w3.org/2001/xml-events" xmlns:xlink="http://www.w3.org/1999/xlink"><defs /><rect fill="blue" height="100%" width="100%" x="-500.0" y="-500.0" /><polyline fill="none" points="-437.5,437.5 -437.5,312.5 -312.5,437.5 -437.5,562.5 -187.5,437.5 -437.5,312.5 -562.5,437.5 -437.5,312.5 -312.5,437.5 -437.5,312.5 -687.5,437.5 -437.5,562.5 -562.5,437.5 -437.5,187.5 -312.5,437.5 -437.5,312.5 -562.5,437.5 -437.5,187.5 -312.5,437.5 -437.5,562.5 -312.5,437.5 -437.5,312.5 -312.5,437.5 -437.5,687.5 -562.5,437.5 -437.5,562.5 -62.5,437.5 -437.5,312.5 -562.5,437.5 -437.5,187.5 -312.5,437.5 -437.5,562.5 -312.5,437.5 -437.5,312.5 -312.5,437.5 -437.5,687.5 -562.5,437.5 -437.5,562.5 -312.5,437.5 -437.5,687.5 -562.5,437.5 -437.5,312.5 -687.5,437.5 -437.5,562.5 -312.5,437.5 -437.5,562.5 -562.5,437.5 -437.5,562.5 -187.5,437.5 -437.5,312.5 -312.5,437.5 -437.5,562.5" stroke="red" stroke-width="12" /></svg>