<?xml version="1.0" encoding="utf-8" ?>
<svg baseProfile="full" height="1000.0" version="1.1" viewBox="-500.0,-500.0,1000.0,1000.0" width="1000.0" xmlns="http://www.w3.org/2000/svg" xmlns:ev="http://www.w3.org/2001/xml-events" xmlns:xlink="http://www.w3.org/1999/xlink"><defs /><rect fill="red" height="100%" width="100%" x="-500.0" y="-500.0" /><polyline fill="none" points="475.0,475.0 475.0,401.9230769230769 438.46153846153845,401.9230769230769 438.46153846153845,475.0 401.9230769230769,475.0 401.9230769230769,292.30769230769226 438.46153846153845,292.30769230769226 438.46153846153845,365.38461538461536 475.0,365.38461538461536 475.0,182.69230769230765 438.46153846153845,182.69230769230765 438.46153846153845,255.76923076923072 401.9230769230769,255.76923076923072 401.9230769230769,182.69230769230762 365.38461538461536,182.69230769230762 365.38461538461536,255.76923076923072 328.8461538461538,255.76923076923072 328.8461538461538,182.69230769230762 292.30769230769226,182.69230769230762 292.30769230769226,365.38461538461536 328.8461538461538,365.38461538461536 328.8461538461538,292.30769230769226 365.38461538461536,292.30769230769226 365.38461538461536,475.0 328.8461538461538,475.0 328.8461538461538,401.9230769230769 292.30769230769226,401.9230769230769 292.30769230769226,475.0 255.76923076923072,475.0 255.76923076923072,401.9230769230769 219.23076923076917,401.9230769230769 219.23076923076917,475.0 182.69230769230762,475.0 182.69230769230762,292.30769230769226 219.23076923076917,292.30769230769226 219.23076923076917,365.38461538461536 255.76923076923072,365.38461538461536 255.76923076923072,182.69230769230765 219.23076923076917,182.69230769230765 219.23076923076917,255.76923076923072 182.69230769230762,255.76923076923072 182.69230769230762,73.07692307692301 219.23076923076917,73.07692307692301 219.23076923076917,146.15384615384608 255.76923076923072,146.15384615384608 255.76923076923072,-36.53846153846163 219.23076923076917,-36.53846153846163 219.23076923076917,36.53846153846145 182.69230769230762,36.53846153846145 182.69230769230762,-146.15384615384625 219.23076923076917,-146.15384615384625 219.23076923076917,-73.07692307692317 255.76923076923072,-73.07692307692317 255.76923076923072,-146.15384615384625 292.30769230769226,-146.15384615384625 292.30769230769226,-73.07692307692317 328.8461538461538,-73.07692307692317 328.8461538461538,-146.15384615384625 365.38461538461536,-146.15384615384625 365.38461538461536,36.53846153846146 328.8461538461538,36.53846153846146 328.8461538461538,-36.53846153846162 292.30769230769226,-36.53846153846162 292.30769230769226,146.15384615384608 328.8461538461538,146.15384615384608 328.8461538461538,73.076923076923 365.38461538461536,73.076923076923 365.38461538461536,146.15384615384608 401.9230769230769,146.15384615384608 401.9230769230769,73.076923076923 438.46153846153845,73.076923076923 438.46153846153845,146.15384615384608 475.0,146.15384615384608 475.0,-36.53846153846163 438.46153846153845,-36.53846153846163 438.46153846153845,36.53846153846145 401.9230769230769,36.53846153846145 401.9230769230769,-146.15384615384625 438.46153846153845,-146.15384615384625 438.46153846153845,-73.07692307692317 475.0,-73.07692307692317 475.0,-255.7692307692309 438.46153846153845,-255.7692307692309 438.46153846153845,-182.6923076923078 401.9230769230769,-182.6923076923078 401.9230769230769,-365.3846153846155 438.46153846153845,-365.3846153846155 438.46153846153845,-292.3076923076924 475.0,-292.3076923076924 475.0,-475.0000000000001 438.46153846153845,-475.0000000000001 438.46153846153845,-401.923076923077 401.9230769230769,-401.923076923077 401.9230769230769,-475.0000000000001 365.38461538461536,-475.0000000000001 365.38461538461536,-401.923076923077 328.8461538461538,-401.923076923077 328.8461538461538,-475.0000000000001 292.30769230769226,-475.0000000000001 292.30769230769226,-292.3076923076924 328.8461538461538,-292.3076923076924 328.8461538461538,-365.3846153846155 365.38461538461536,-365.3846153846155 365.38461538461536,-182.69230769230776 328.8461538461538,-182.69230769230776 328.8461538461538,-255.76923076923083 292.30769230769226,-255.76923076923083 292.30769230769226,-182.69230769230774 255.76923076923072,-182.69230769230774 255.76923076923072,-255.76923076923083 219.23076923076917,-255.76923076923083 219.23076923076917,-182.69230769230774 182.69230769230762,-182.69230769230774 182.69230769230762,-365.3846153846155 219.23076923076917,-365.3846153846155 219.23076923076917,-292.3076923076924 255.76923076923072,-292.3076923076924 255.76923076923072,-475.0000000000001 219.23076923076917,-475.0000000000001 219.23076923076917,-401.923076923077 182.69230769230762,-401.923076923077 182.69230769230762,-475.0000000000001 146.15384615384608,-475.0000000000001 146.15384615384608,-401.923076923077 109.61538461538453,-401.923076923077 109.61538461538453,-475.0000000000001 73.07692307692298,-475.0000000000001 73.07692307692298,-292.3076923076924 109.61538461538453,-292.3076923076924 109.61538461538453,-365.3846153846155 146.15384615384608,-365.3846153846155 146.15384615384608,-182.69230769230776 109.61538461538453,-182.69230769230776 109.61538461538453,-255.76923076923083 73.07692307692298,-255.76923076923083 73.07692307692298,-182.69230769230774 36.53846153846144,-182.69230769230774 36.53846153846144,-255.76923076923083 -9.947598300641403e-14,-255.76923076923083 -9.947598300641403e-14,-182.69230769230774 -36.53846153846164,-182.69230769230774 -36.53846153846164,-365.3846153846155 -9.947598300641403e-14,-365.3846153846155 -9.947598300641403e-14,-292.3076923076924 36.53846153846144,-292.3076923076924 36.53846153846144,-475.0000000000001 -9.947598300641403e-14,-475.0000000000001 -9.947598300641403e-14,-401.923076923077 -36.53846153846164,-401.923076923077 -36.53846153846164,-475.0000000000001 -73.07692307692318,-475.0000000000001 -73.07692307692318,-401.923076923077 -109.61538461538473,-401.923076923077 -109.61538461538473,-475.0000000000001 -146.15384615384627,-475.0000000000001 -146.15384615384627,-292.3076923076924 -109.61538461538473,-292.3076923076924 -109.61538461538473,-365.3846153846155 -73.07692307692318,-365.3846153846155 -73.07692307692318,-182.69230769230776 -109.61538461538473,-182.69230769230776 -109.61538461538473,-255.76923076923083 -146.15384615384627,-255.76923076923083 -146.15384615384627,-73.07692307692312 -109.61538461538473,-73.07692307692312 -109.61538461538473,-146.1538461538462 -73.07692307692318,-146.1538461538462 -73.07692307692318,36.53846153846152 -109.61538461538473,36.53846153846152 -109.61538461538473,-36.53846153846156 -146.15384615384627,-36.53846153846156 -146.15384615384627,146.15384615384613 -109.61538461538473,146.15384615384613 -109.61538461538473,73.07692307692305 -73.07692307692318,73.07692307692305 -73.07692307692318,146.15384615384613 -36.53846153846164,146.15384615384613 -36.53846153846164,73.07692307692305 -9.947598300641403e-14,73.07692307692305 -9.947598300641403e-14,146.15384615384613 36.53846153846144,146.15384615384613 36.53846153846144,-36.538461538461576 -9.947598300641403e-14,-36.538461538461576 -9.947598300641403e-14,36.538461538461505 -36.53846153846164,36.538461538461505 -36.53846153846164,-146.1538461538462 -9.947598300641403e-14,-146.1538461538462 -9.947598300641403e-14,-73.07692307692311 36.53846153846144,-73.07692307692311 36.53846153846144,-146.1538461538462 73.07692307692298,-146.1538461538462 73.07692307692298,-73.07692307692311 109.61538461538453,-73.07692307692311 109.61538461538453,-146.1538461538462 146.15384615384608,-146.1538461538462 146.15384615384608,36.53846153846152 109.61538461538453,36.53846153846152 109.61538461538453,-36.53846153846156 73.07692307692298,-36.53846153846156 73.07692307692298,146.15384615384613 109.61538461538453,146.15384615384613 109.61538461538453,73.07692307692305 146.15384615384608,73.07692307692305 146.15384615384608,255.76923076923077 109.61538461538453,255.76923076923077 109.61538461538453,182.69230769230768 73.07692307692298,182.69230769230768 73.07692307692298,365.38461538461536 109.61538461538453,365.38461538461536 109.61538461538453,292.30769230769226 146.15384615384608,292.30769230769226 146.15384615384608,475.0 109.61538461538453,475.0 109.61538461538453,401.9230769230769 73.07692307692298,401.9230769230769 73.07692307692298,475.0 36.53846153846144,475.0 36.53846153846144,401.9230769230769 -9.947598300641403e-14,401.9230769230769 -9.947598300641403e-14,475.0 -36.53846153846164,475.0 -36.53846153846164,292.30769230769226 -9.947598300641403e-14,292.30769230769226 -9.947598300641403e-14,365.38461538461536 36.53846153846144,365.38461538461536 36.53846153846144,182.69230769230765 -9.947598300641403e-14,182.69230769230765 -9.947598300641403e-14,255.76923076923072 -36.53846153846164,255.76923076923072 -36.53846153846164,182.69230769230762 -73.07692307692318,182.69230769230762 -73.07692307692318,255.76923076923072 -109.61538461538473,255.76923076923072 -109.61538461538473,182.69230769230762 -146.15384615384627,182.69230769230762 -146.15384615384627,365.38461538461536 -109.61538461538473,365.38461538461536 -109.61538461538473,292.30769230769226 -73.07692307692318,292.30769230769226 -73.07692307692318,475.0 -109.61538461538473,475.0 -109.61538461538473,401.9230769230769 -146.15384615384627,401.9230769230769 -146.15384615384627,475.0 -182.69230769230782,475.0 -182.69230769230782,401.9230769230769 -219.23076923076937,401.9230769230769 -219.23076923076937,475.0 -255.76923076923092,475.0 -255.76923076923092,292.30769230769226 -219.23076923076937,292.30769230769226 -219.23076923076937,365.38461538461536 -182.69230769230782,365.38461538461536 -182.69230769230782,182.69230769230765 -219.23076923076937,182.69230769230765 -219.23076923076937,255.76923076923072 -255.76923076923092,255.76923076923072 -255.76923076923092,182.69230769230762 -292.30769230769243,182.69230769230762 -292.30769230769243,255.76923076923072 -328.846153846154,255.76923076923072 -328.846153846154,182.69230769230762 -365.38461538461553,182.69230769230762 -365.38461538461553,365.38461538461536 -328.846153846154,365.38461538461536 -328.846153846154,292.30769230769226 -292.30769230769243,292.30769230769226 -292.30769230769243,475.0 -328.846153846154,475.0 -328.846153846154,401.9230769230769 -365.38461538461553,401.9230769230769 -365.38461538461553,475.0 -401.9230769230771,475.0 -401.9230769230771,401.9230769230769 -438.4615384615386,401.9230769230769 -438.4615384615386,475.0 -475.00000000000017,475.0 -475.00000000000017,292.30769230769226 -438.4615384615386,292.30769230769226 -438.4615384615386,365.38461538461536 -401.9230769230771,365.38461538461536 -401.9230769230771,182.69230769230765 -438.4615384615386,182.69230769230765 -438.4615384615386,255.76923076923072 -475.00000000000017,255.76923076923072 -475.00000000000017,73.07692307692301 -438.4615384615386,73.07692307692301 -438.4615384615386,146.15384615384608 -401.9230769230771,146.15384615384608 -401.9230769230771,-36.53846153846163 -438.4615384615386,-36.53846153846163 -438.4615384615386,36.53846153846145 -475.00000000000017,36.53846153846145 -475.00000000000017,-146.15384615384625 -438.4615384615386,-146.15384615384625 -438.4615384615386,-73.07692307692317 -401.9230769230771,-73.07692307692317 -401.9230769230771,-146.15384615384625 -365.38461538461553,-146.15384615384625 -365.38461538461553,-73.07692307692317 -328.846153846154,-73.07692307692317 -328.846153846154,-146.15384615384625 -292.30769230769243,-146.15384615384625 -292.30769230769243,36.53846153846146 -328.846153846154,36.53846153846146 -328.846153846154,-36.53846153846162 -365.38461538461553,-36.53846153846162 -365.38461538461553,146.15384615384608 -328.846153846154,146.15384615384608 -328.846153846154,73.076923076923 -292.30769230769243,73.076923076923 -292.30769230769243,146.15384615384608 -255.7692307692309,146.15384615384608 -255.7692307692309,73.076923076923 -219.23076923076934,73.076923076923 -219.23076923076934,146.15384615384608 -182.6923076923078,146.15384615384608 -182.6923076923078,-36.53846153846163 -219.23076923076934,-36.53846153846163 -219.23076923076934,36.53846153846145 -255.7692307692309,36.53846153846145 -255.7692307692309,-146.15384615384625 -219.23076923076934,-146.15384615384625 -219.23076923076934,-73.07692307692317 -182.6923076923078,-73.07692307692317 -182.6923076923078,-255.7692307692309 -219.23076923076934,-255.7692307692309 -219.23076923076934,-182.6923076923078 -255.7692307692309,-182.6923076923078 -255.7692307692309,-365.3846153846155 -219.23076923076934,-365.3846153846155 -219.23076923076934,-292.3076923076924 -182.6923076923078,-292.3076923076924 -182.6923076923078,-475.0000000000001 -219.23076923076934,-475.0000000000001 -219.23076923076934,-401.923076923077 -255.7692307692309,-401.923076923077 -255.7692307692309,-475.0000000000001 -292.30769230769243,-475.0000000000001 -292.30769230769243,-401.923076923077 -328.846153846154,-401.923076923077 -328.846153846154,-475.0000000000001 -365.38461538461553,-475.0000000000001 -365.38461538461553,-292.3076923076924 -328.846153846154,-292.3076923076924 -328.846153846154,-365.3846153846155 -292.30769230769243,-365.3846153846155 -292.30769230769243,-182.69230769230776 -328.846153846154,-182.69230769230776 -328.846153846154,-255.76923076923083 -365.38461538461553,-255.76923076923083 -365.38461538461553,-182.69230769230774 -401.9230769230771,-182.69230769230774 -401.9230769230771,-255.76923076923083 -438.4615384615386,-255.76923076923083 -438.4615384615386,-182.69230769230774 -475.00000000000017,-182.69230769230774 -475.00000000000017,-365.3846153846155 -438.4615384615386,-365.3846153846155 -438.4615384615386,-292.3076923076924 -401.9230769230771,-292.3076923076924 -401.9230769230771,-475.0000000000001 -438.4615384615386,-475.0000000000001 -438.4615384615386,-401.923076923077 -475.00000000000017,-401.923076923077 -475.00000000000017,-475.0000000000001" stroke="blue" stroke-width="6" /></svg>