<?xml version="1.0" encoding="utf-8" ?>
<svg baseProfile="full" height="1000.0" version="1.1" viewBox="-500.0,-500.0,1000.0,1000.0" width="1000.0" xmlns="http://www.w3.org/2000/svg" xmlns:ev="http://www.w3.org/2001/xml-events" xmlns:xlink="http://www.w3.org/1999/xlink"><defs /><rect fill="white" height="100%" width="100%" x="-500.0" y="-500.0" /><polyline fill="none" points="-15.625,484.375 -15.625,453.125 -46.875,453.125 -46.875,484.375 -109.375,484.375 -109.375,453.125 -78.125,453.125 -78.125,421.875 -109.375,421.875 -109.375,390.625 -46.875,390.625 -46.875,421.875 -15.625,421.875 -15.625,359.375 -46.875,359.375 -46.875,328.125 -15.625,328.125 -15.625,265.625 -46.875,265.625 -46.875,296.875 -78.125,296.875 -78.125,265.625 -109.375,265.625 -109.375,328.125 -78.125,328.125 -78.125,359.375 -171.875,359.375 -171.875,328.125 -140.625,328.125 -140.625,265.625 -171.875,265.625 -171.875,296.875 -203.125,296.875 -203.125,265.625 -234.375,265.625 -234.375,328.125 -203.125,328.125 -203.125,359.375 -234.375,359.375 -234.375,421.875 -203.125,421.875 -203.125,390.625 -140.625,390.625 -140.625,421.875 -171.875,421.875 -171.875,453.125 -140.625,453.125 -140.625,484.375 -203.125,484.375 -203.125,453.125 -234.375,453.125 -234.375,484.375 -296.875,484.375 -296.875,453.125 -265.625,453.125 -265.625,390.625 -296.875,390.625 -296.875,421.875 -328.125,421.875 -328.125,390.625 -359.375,390.625 -359.375,453.125 -328.125,453.125 -328.125,484.375 -390.625,484.375 -390.625,453.125 -421.875,453.125 -421.875,484.375 -484.375,484.375 -484.375,453.125 -453.125,453.125 -453.125,421.875 -484.375,421.875 -484.375,390.625 -421.875,390.625 -421.875,421.875 -390.625,421.875 -390.625,328.125 -421.875,328.125 -421.875,359.375 -484.375,359.375 -484.375,328.125 -453.125,328.125 -453.125,296.875 -484.375,296.875 -484.375,265.625 -421.875,265.625 -421.875,296.875 -390.625,296.875 -390.625,265.625 -328.125,265.625 -328.125,296.875 -359.375,296.875 -359.375,359.375 -328.125,359.375 -328.125,328.125 -296.875,328.125 -296.875,359.375 -265.625,359.375 -265.625,296.875 -296.875,296.875 -296.875,265.625 -265.625,265.625 -265.625,234.375 -296.875,234.375 -296.875,203.125 -265.625,203.125 -265.625,140.625 -296.875,140.625 -296.875,171.875 -328.125,171.875 -328.125,140.625 -359.375,140.625 -359.375,203.125 -328.125,203.125 -328.125,234.375 -390.625,234.375 -390.625,203.125 -421.875,203.125 -421.875,234.375 -484.375,234.375 -484.375,203.125 -453.125,203.125 -453.125,171.875 -484.375,171.875 -484.375,140.625 -421.875,140.625 -421.875,171.875 -390.625,171.875 -390.625,78.125 -421.875,78.125 -421.875,109.375 -484.375,109.375 -484.375,78.125 -453.125,78.125 -453.125,46.875 -484.375,46.875 -484.375,15.625 -421.875,15.625 -421.875,46.875 -390.625,46.875 -390.625,15.625 -328.125,15.625 -328.125,46.875 -359.375,46.875 -359.375,109.375 -328.125,109.375 -328.125,78.125 -296.875,78.125 -296.875,109.375 -265.625,109.375 -265.625,46.875 -296.875,46.875 -296.875,15.625 -234.375,15.625 -234.375,46.875 -203.125,46.875 -203.125,15.625 -140.625,15.625 -140.625,46.875 -171.875,46.875 -171.875,78.125 -140.625,78.125 -140.625,109.375 -203.125,109.375 -203.125,78.125 -234.375,78.125 -234.375,140.625 -203.125,140.625 -203.125,171.875 -234.375,171.875 -234.375,234.375 -203.125,234.375 -203.125,203.125 -171.875,203.125 -171.875,234.375 -140.625,234.375 -140.625,171.875 -171.875,171.875 -171.875,140.625 -78.125,140.625 -78.125,171.875 -109.375,171.875 -109.375,234.375 -78.125,234.375 -78.125,203.125 -46.875,203.125 -46.875,234.375 -15.625,234.375 -15.625,171.875 -46.875,171.875 -46.875,140.625 -15.625,140.625 -15.625,78.125 -46.875,78.125 -46.875,109.375 -109.375,109.375 -109.375,78.125 -78.125,78.125 -78.125,46.875 -109.375,46.875 -109.375,15.625 -46.875,15.625 -46.875,46.875 -15.625,46.875 -15.625,-46.875 -46.875,-46.875 -46.875,-15.625 -109.375,-15.625 -109.375,-46.875 -78.125,-46.875 -78.125,-78.125 -109.375,-78.125 -109.375,-109.375 -46.875,-109.375 -46.875,-78.125 -15.625,-78.125 -15.625,-140.625 -46.875,-140.625 -46.875,-171.875 -15.625,-171.875 -15.625,-234.375 -46.875,-234.375 -46.875,-203.125 -78.125,-203.125 -78.125,-234.375 -109.375,-234.375 -109.375,-171.875 -78.125,-171.875 -78.125,-140.625 -171.875,-140.625 -171.875,-171.875 -140.625,-171.875 -140.625,-234.375 -171.875,-234.375 -171.875,-203.125 -203.125,-203.125 -203.125,-234.375 -234.375,-234.375 -234.375,-171.875 -203.125,-171.875 -203.125,-140.625 -234.375,-140.625 -234.375,-78.125 -203.125,-78.125 -203.125,-109.375 -140.625,-109.375 -140.625,-78.125 -171.875,-78.125 -171.875,-46.875 -140.625,-46.875 -140.625,-15.625 -203.125,-15.625 -203.125,-46.875 -234.375,-46.875 -234.375,-15.625 -296.875,-15.625 -296.875,-46.875 -265.625,-46.875 -265.625,-109.375 -296.875,-109.375 -296.875,-78.125 -328.125,-78.125 -328.125,-109.375 -359.375,-109.375 -359.375,-46.875 -328.125,-46.875 -328.125,-15.625 -390.625,-15.625 -390.625,-46.875 -421.875,-46.875 -421.875,-15.625 -484.375,-15.625 -484.375,-46.875 -453.125,-46.875 -453.125,-78.125 -484.375,-78.125 -484.375,-109.375 -421.875,-109.375 -421.875,-78.125 -390.625,-78.125 -390.625,-171.875 -421.875,-171.875 -421.875,-140.625 -484.375,-140.625 -484.375,-171.875 -453.125,-171.875 -453.125,-203.125 -484.375,-203.125 -484.375,-234.375 -421.875,-234.375 -421.875,-203.125 -390.625,-203.125 -390.625,-234.375 -328.125,-234.375 -328.125,-203.125 -359.375,-203.125 -359.375,-140.625 -328.125,-140.625 -328.125,-171.875 -296.875,-171.875 -296.875,-140.625 -265.625,-140.625 -265.625,-203.125 -296.875,-203.125 -296.875,-234.375 -265.625,-234.375 -265.625,-265.625 -296.875,-265.625 -296.875,-296.875 -265.625,-296.875 -265.625,-359.375 -296.875,-359.375 -296.875,-328.125 -328.125,-328.125 -328.125,-359.375 -359.375,-359.375 -359.375,-296.875 -328.125,-296.875 -328.125,-265.625 -390.625,-265.625 -390.625,-296.875 -421.875,-296.875 -421.875,-265.625 -484.375,-265.625 -484.375,-296.875 -453.125,-296.875 -453.125,-328.125 -484.375,-328.125 -484.375,-359.375 -421.875,-359.375 -421.875,-328.125 -390.625,-328.125 -390.625,-421.875 -421.875,-421.875 -421.875,-390.625 -484.375,-390.625 -484.375,-421.875 -453.125,-421.875 -453.125,-453.125 -484.375,-453.125 -484.375,-484.375 -421.875,-484.375 -421.875,-453.125 -390.625,-453.125 -390.625,-484.375 -328.125,-484.375 -328.125,-453.125 -359.375,-453.125 -359.375,-390.625 -328.125,-390.625 -328.125,-421.875 -296.875,-421.875 -296.875,-390.625 -265.625,-390.625 -265.625,-453.125 -296.875,-453.125 -296.875,-484.375 -234.375,-484.375 -234.375,-453.125 -203.125,-453.125 -203.125,-484.375 -140.625,-484.375 -140.625,-453.125 -171.875,-453.125 -171.875,-421.875 -140.625,-421.875 -140.625,-390.625 -203.125,-390.625 -203.125,-421.875 -234.375,-421.875 -234.375,-359.375 -203.125,-359.375 -203.125,-328.125 -234.375,-328.125 -234.375,-265.625 -203.125,-265.625 -203.125,-296.875 -171.875,-296.875 -171.875,-265.625 -140.625,-265.625 -140.625,-328.125 -171.875,-328.125 -171.875,-359.375 -78.125,-359.375 -78.125,-328.125 -109.375,-328.125 -109.375,-265.625 -78.125,-265.625 -78.125,-296.875 -46.875,-296.875 -46.875,-265.625 -15.625,-265.625 -15.625,-328.125 -46.875,-328.125 -46.875,-359.375 -15.625,-359.375 -15.625,-421.875 -46.875,-421.875 -46.875,-390.625 -109.375,-390.625 -109.375,-421.875 -78.125,-421.875 -78.125,-453.125 -109.375,-453.125 -109.375,-484.375 -46.875,-484.375 -46.875,-453.125 -15.625,-453.125 -15.625,-484.375 15.625,-484.375 15.625,-453.125 46.875,-453.125 46.875,-484.375 109.375,-484.375 109.375,-453.125 78.125,-453.125 78.125,-421.875 109.375,-421.875 109.375,-390.625 46.875,-390.625 46.875,-421.875 15.625,-421.875 15.625,-359.375 46.875,-359.375 46.875,-328.125 15.625,-328.125 15.625,-265.625 46.875,-265.625 46.875,-296.875 78.125,-296.875 78.125,-265.625 109.375,-265.625 109.375,-328.125 78.125,-328.125 78.125,-359.375 171.875,-359.375 171.875,-328.125 140.625,-328.125 140.625,-265.625 171.875,-265.625 171.875,-296.875 203.125,-296.875 203.125,-265.625 234.375,-265.625 234.375,-328.125 203.125,-328.125 203.125,-359.375 234.375,-359.375 234.375,-421.875 203.125,-421.875 203.125,-390.625 140.625,-390.625 140.625,-421.875 171.875,-421.875 171.875,-453.125 140.625,-453.125 140.625,-484.375 203.125,-484.375 203.125,-453.125 234.375,-453.125 234.375,-484.375 296.875,-484.375 296.875,-453.125 265.625,-453.125 265.625,-390.625 296.875,-390.625 296.875,-421.875 328.125,-421.875 328.125,-390.625 359.375,-390.625 359.375,-453.125 328.125,-453.125 328.125,-484.375 390.625,-484.375 390.625,-453.125 421.875,-453.125 421.875,-484.375 484.375,-484.375 484.375,-453.125 453.125,-453.125 453.125,-421.875 484.375,-421.875 484.375,-390.625 421.875,-390.625 421.875,-421.875 390.625,-421.875 390.625,-328.125 421.875,-328.125 421.875,-359.375 484.375,-359.375 484.375,-328.125 453.125,-328.125 453.125,-296.875 484.375,-296.875 484.375,-265.625 421.875,-265.625 421.875,-296.875 390.625,-296.875 390.625,-265.625 328.125,-265.625 328.125,-296.875 359.375,-296.875 359.375,-359.375 328.125,-359.375 328.125,-328.125 296.875,-328.125 296.875,-359.375 265.625,-359.375 265.625,-296.875 296.875,-296.875 296.875,-265.625 265.625,-265.625 265.625,-234.375 296.875,-234.375 296.875,-203.125 265.625,-203.125 265.625,-140.625 296.875,-140.625 296.875,-171.875 328.125,-171.875 328.125,-140.625 359.375,-140.625 359.375,-203.125 328.125,-203.125 328.125,-234.375 390.625,-234.375 390.625,-203.125 421.875,-203.125 421.875,-234.375 484.375,-234.375 484.375,-203.125 453.125,-203.125 453.125,-171.875 484.375,-171.875 484.375,-140.625 421.875,-140.625 421.875,-171.875 390.625,-171.875 390.625,-78.125 421.875,-78.125 421.875,-109.375 484.375,-109.375 484.375,-78.125 453.125,-78.125 453.125,-46.875 484.375,-46.875 484.375,-15.625 421.875,-15.625 421.875,-46.875 390.625,-46.875 390.625,-15.625 328.125,-15.625 328.125,-46.875 359.375,-46.875 359.375,-109.375 328.125,-109.375 328.125,-78.125 296.875,-78.125 296.875,-109.375 265.625,-109.375 265.625,-46.875 296.875,-46.875 296.875,-15.625 234.375,-15.625 234.375,-46.875 203.125,-46.875 203.125,-15.625 140.625,-15.625 140.625,-46.875 171.875,-46.875 171.875,-78.125 140.625,-78.125 140.625,-109.375 203.125,-109.375 203.125,-78.125 234.375,-78.125 234.375,-140.625 203.125,-140.625 203.125,-171.875 234.375,-171.875 234.375,-234.375 203.125,-234.375 203.125,-203.125 171.875,-203.125 171.875,-234.375 140.625,-234.375 140.625,-171.875 171.875,-171.875 171.875,-140.625 78.125,-140.625 78.125,-171.875 109.375,-171.875 109.375,-234.375 78.125,-234.375 78.125,-203.125 46.875,-203.125 46.875,-234.375 15.625,-234.375 15.625,-171.875 46.875,-171.875 46.875,-140.625 15.625,-140.625 15.625,-78.125 46.875,-78.125 46.875,-109.375 109.375,-109.375 109.375,-78.125 78.125,-78.125 78.125,-46.875 109.375,-46.875 109.375,-15.625 46.875,-15.625 46.875,-46.875 15.625,-46.875 15.625,46.875 46.875,46.875 46.875,15.625 109.375,15.625 109.375,46.875 78.125,46.875 78.125,78.125 109.375,78.125 109.375,109.375 46.875,109.375 46.875,78.125 15.625,78.125 15.625,140.625 46.875,140.625 46.875,171.875 15.625,171.875 15.625,234.375 46.875,234.375 46.875,203.125 78.125,203.125 78.125,234.375 109.375,234.375 109.375,171.875 78.125,171.875 78.125,140.625 171.875,140.625 171.875,171.875 140.625,171.875 140.625,234.375 171.875,234.375 171.875,203.125 203.125,203.125 203.125,234.375 234.375,234.375 234.375,171.875 203.125,171.875 203.125,140.625 234.375,140.625 234.375,78.125 203.125,78.125 203.125,109.375 140.625,109.375 140.625,78.125 171.875,78.125 171.875,46.875 140.625,46.875 140.625,15.625 203.125,15.625 203.125,46.875 234.375,46.875 234.375,15.625 296.875,15.625 296.875,46.875 265.625,46.875 265.625,109.375 296.875,109.375 296.875,78.125 328.125,78.125 328.125,109.375 359.375,109.375 359.375,46.875 328.125,46.875 328.125,15.625 390.625,15.625 390.625,46.875 421.875,46.875 421.875,15.625 484.375,15.625 484.375,46.875 453.125,46.875 453.125,78.125 484.375,78.125 484.375,109.375 421.875,109.375 421.875,78.125 390.625,78.125 390.625,171.875 421.875,171.875 421.875,140.625 484.375,140.625 484.375,171.875 453.125,171.875 453.125,203.125 484.375,203.125 484.375,234.375 421.875,234.375 421.875,203.125 390.625,203.125 390.625,234.375 328.125,234.375 328.125,203.125 359.375,203.125 359.375,140.625 328.125,140.625 328.125,171.875 296.875,171.875 296.875,140.625 265.625,140.625 265.625,203.125 296.875,203.125 296.875,234.375 265.625,234.375 265.625,265.625 296.875,265.625 296.875,296.875 265.625,296.875 265.625,359.375 296.875,359.375 296.875,328.125 328.125,328.125 328.125,359.375 359.375,359.375 359.375,296.875 328.125,296.875 328.125,265.625 390.625,265.625 390.625,296.875 421.875,296.875 421.875,265.625 484.375,265.625 484.375,296.875 453.125,296.875 453.125,328.125 484.375,328.125 484.375,359.375 421.875,359.375 421.875,328.125 390.625,328.125 390.625,421.875 421.875,421.875 421.875,390.625 484.375,390.625 484.375,421.875 453.125,421.875 453.125,453.125 484.375,453.125 484.375,484.375 421.875,484.375 421.875,453.125 390.625,453.125 390.625,484.375 328.125,484.375 328.125,453.125 359.375,453.125 359.375,390.625 328.125,390.625 328.125,421.875 296.875,421.875 296.875,390.625 265.625,390.625 265.625,453.125 296.875,453.125 296.875,484.375 234.375,484.375 234.375,453.125 203.125,453.125 203.125,484.375 140.625,484.375 140.625,453.125 171.875,453.125 171.875,421.875 140.625,421.875 140.625,390.625 203.125,390.625 203.125,421.875 234.375,421.875 234.375,359.375 203.125,359.375 203.125,328.125 234.375,328.125 234.375,265.625 203.125,265.625 203.125,296.875 171.875,296.875 171.875,265.625 140.625,265.625 140.625,328.125 171.875,328.125 171.875,359.375 78.125,359.375 78.125,328.125 109.375,328.125 109.375,265.625 78.125,265.625 78.125,296.875 46.875,296.875 46.875,265.625 15.625,265.625 15.625,328.125 46.875,328.125 46.875,359.375 15.625,359.375 15.625,421.875 46.875,421.875 46.875,390.625 109.375,390.625 109.375,421.875 78.125,421.875 78.125,453.125 109.375,453.125 109.375,484.375 46.875,484.375 46.875,453.125 15.625,453.125 15.625,484.375" stroke="red" stroke-width="10" /></svg>